
<svg xmlns="http://www.w3.org/2000/svg" width="1024" height="768">
    <g style="font-style:normal;font-weight:300;font-size:72px;line-height:1;font-family:&quot;Uni Neue&quot;;font-variant-ligatures:none;text-align:center;text-anchor:middle">
        <path fill="#c77982" d="M113.007-51.48c-.288 0-.432.144-.432.432v1.368c0 .288.144.432.432.432h16.56V-.432c0 .288.216.432.504.432h1.512c.216 0 .432-.144.432-.432v-48.816h16.776c.288 0 .504-.144.504-.432v-1.368c0-.288-.216-.432-.504-.432z" style="font-style:normal;font-weight:300;font-size:72px;line-height:1;font-family:&quot;Uni Neue&quot;;font-variant-ligatures:none;text-align:center;text-anchor:middle" transform="matrix(.75 0 0 .75 128.03 403.305)"/>
        <path fill="#c97d85" d="M190.998 0c.36 0 .432-.288.288-.576L174.654-21.96c9.936-.504 15.84-5.904 15.84-14.688 0-9.36-6.552-14.832-17.136-14.832H157.59c-.288 0-.504.144-.504.432V-.432c0 .288.216.432.504.432h1.512c.216 0 .432-.144.432-.432v-21.456h12.312l16.632 21.6c.072.216.36.288.576.288zm-17.64-49.248c9.288 0 14.76 4.536 14.76 12.6 0 8.136-5.472 12.528-14.76 12.528h-13.824v-25.128z" style="font-style:normal;font-weight:300;font-size:72px;line-height:1;font-family:&quot;Uni Neue&quot;;font-variant-ligatures:none;text-align:center;text-anchor:middle" transform="matrix(.75 0 0 .75 128.03 403.305)"/>
        <path fill="#cb8089" d="M197.347 0c.216 0 .36-.144.432-.36l5.904-15.768h24.12L233.635-.36c.144.216.288.36.504.36h1.656c.288 0 .432-.216.36-.504L217.22-51.12a.541.541 0 0 0-.504-.36H214.7c-.144 0-.36.144-.432.36L195.331-.504c-.072.288.072.504.36.504zm18.288-48.528h.216l11.16 30.168h-22.536z" style="font-style:normal;font-weight:300;font-size:72px;line-height:1;font-family:&quot;Uni Neue&quot;;font-variant-ligatures:none;text-align:center;text-anchor:middle" transform="matrix(.75 0 0 .75 128.03 403.305)"/>
        <path fill="#cd848c" d="M257.16 0c.144 0 .432-.144.504-.36l19.296-50.616c.072-.288-.072-.504-.36-.504h-1.584a.541.541 0 0 0-.504.36L256.08-2.736h-.144l-18.36-48.384c-.144-.216-.36-.36-.576-.36h-1.584c-.288 0-.432.216-.36.504L254.352-.36c.144.216.36.36.576.36z" style="font-style:normal;font-weight:300;font-size:72px;line-height:1;font-family:&quot;Uni Neue&quot;;font-variant-ligatures:none;text-align:center;text-anchor:middle" transform="matrix(.75 0 0 .75 128.03 403.305)"/>
        <path fill="#cf8890" d="M287.08-51.048c0-.288-.216-.432-.432-.432h-1.512c-.288 0-.504.144-.504.432V-.432c0 .288.216.432.504.432h1.512c.216 0 .432-.144.432-.432z" style="font-style:normal;font-weight:300;font-size:72px;line-height:1;font-family:&quot;Uni Neue&quot;;font-variant-ligatures:none;text-align:center;text-anchor:middle" transform="matrix(.75 0 0 .75 128.03 403.305)"/>
        <path fill="#d18c93" d="M296.91 0c.216 0 .36-.144.432-.36l5.904-15.768h24.12L333.198-.36c.144.216.288.36.504.36h1.656c.288 0 .432-.216.36-.504L316.782-51.12a.541.541 0 0 0-.504-.36h-2.016c-.144 0-.36.144-.432.36L294.894-.504c-.072.288.072.504.36.504zm18.288-48.528h.216l11.16 30.168h-22.536z" style="font-style:normal;font-weight:300;font-size:72px;line-height:1;font-family:&quot;Uni Neue&quot;;font-variant-ligatures:none;text-align:center;text-anchor:middle" transform="matrix(.75 0 0 .75 128.03 403.305)"/>
        <path fill="#d38f96" d="M345.57 0c.216 0 .432-.144.432-.432l-.072-47.16L377.106-.288c.072.216.36.288.576.288h1.728c.288 0 .504-.144.504-.432v-50.616c0-.288-.216-.432-.504-.432h-1.44c-.288 0-.504.144-.504.432l.072 47.304-31.176-47.448c-.072-.216-.36-.288-.504-.288h-1.8c-.288 0-.504.144-.504.432V-.432c0 .288.216.432.504.432z" style="font-style:normal;font-weight:300;font-size:72px;line-height:1;font-family:&quot;Uni Neue&quot;;font-variant-ligatures:none;text-align:center;text-anchor:middle" transform="matrix(.75 0 0 .75 128.03 403.305)"/>
        <path fill="#d5939a" d="M410.242-21.024c.288 0 .432-.144.432-.432v-1.296c0-.288-.144-.432-.432-.432h-17.856c-.288 0-.432.144-.432.432v1.296c0 .288.144.432.432.432z" style="font-style:normal;font-weight:300;font-size:72px;line-height:1;font-family:&quot;Uni Neue&quot;;font-variant-ligatures:none;text-align:center;text-anchor:middle" transform="matrix(.75 0 0 .75 128.03 403.305)"/>
        <path fill="#d7979d" d="M454.262-39.024c0-6.696-4.032-12.456-15.696-12.456H423.23c-.288 0-.504.144-.504.432V-.432c0 .288.216.432.504.432h15.336c11.52 0 17.784-5.256 17.784-14.256 0-7.2-3.744-12.024-10.656-13.392 5.256-1.512 8.568-5.544 8.568-11.376zM425.174-2.232v-24.264h14.688c9.792 0 14.112 4.896 14.112 12.24 0 7.56-5.112 12.024-15.408 12.024zm26.64-36.792c0 6.552-4.464 10.296-11.952 10.296h-14.688v-20.52h13.392c10.296 0 13.248 4.896 13.248 10.224z" style="font-style:normal;font-weight:300;font-size:72px;line-height:1;font-family:&quot;Uni Neue&quot;;font-variant-ligatures:none;text-align:center;text-anchor:middle" transform="matrix(.75 0 0 .75 128.03 403.305)"/>
        <path fill="#d99aa1" d="M503.016-16.128v-18.648c0-10.368-7.416-17.424-18.72-17.424-11.376 0-18.792 7.056-18.792 17.424v18.648c0 9.72 7.488 16.848 18.792 16.848 11.232 0 18.72-7.128 18.72-16.848zm-35.136 0v-18.648c0-9.072 6.336-15.192 16.416-15.192 10.008 0 16.344 6.12 16.344 15.192v18.648c0 8.424-6.408 14.544-16.344 14.544-10.008 0-16.416-6.12-16.416-14.544z" style="font-style:normal;font-weight:300;font-size:72px;line-height:1;font-family:&quot;Uni Neue&quot;;font-variant-ligatures:none;text-align:center;text-anchor:middle" transform="matrix(.75 0 0 .75 128.03 403.305)"/>
        <path fill="#db9ea4" d="M507.32-51.48c-.289 0-.433.144-.433.432v1.368c0 .288.144.432.432.432h16.56V-.432c0 .288.216.432.504.432h1.512c.216 0 .432-.144.432-.432v-48.816h16.776c.288 0 .504-.144.504-.432v-1.368c0-.288-.216-.432-.504-.432z" style="font-style:normal;font-weight:300;font-size:72px;line-height:1;font-family:&quot;Uni Neue&quot;;font-variant-ligatures:none;text-align:center;text-anchor:middle" transform="matrix(.75 0 0 .75 128.03 403.305)"/>
        <path fill="#dca2a7" d="M563.101-21.024c.288 0 .432-.144.432-.432v-1.296c0-.288-.144-.432-.432-.432h-17.856c-.288 0-.432.144-.432.432v1.296c0 .288.144.432.432.432z" style="font-style:normal;font-weight:300;font-size:72px;line-height:1;font-family:&quot;Uni Neue&quot;;font-variant-ligatures:none;text-align:center;text-anchor:middle" transform="matrix(.75 0 0 .75 128.03 403.305)"/>
        <path fill="#dea5ab" d="m586.627-25.992 16.56-24.912c.216-.288.072-.576-.216-.576H601.1c-.216 0-.432.072-.576.288l-15.336 23.328-15.48-23.328c-.072-.216-.36-.288-.504-.288h-1.872c-.36 0-.504.288-.288.576l16.632 24.912L566.251-.576c-.216.288-.072.576.288.576h1.872c.216 0 .432-.072.504-.288l16.272-23.832L601.315-.288c.072.216.36.288.504.288h1.944c.36 0 .432-.288.216-.576z" style="font-style:normal;font-weight:300;font-size:72px;line-height:1;font-family:&quot;Uni Neue&quot;;font-variant-ligatures:none;text-align:center;text-anchor:middle" transform="matrix(.75 0 0 .75 128.03 403.305)"/>
        <path fill="#e0a9ae" d="M625.117-21.024c.288 0 .432-.144.432-.432v-1.296c0-.288-.144-.432-.432-.432h-17.856c-.288 0-.432.144-.432.432v1.296c0 .288.144.432.432.432z" style="font-style:normal;font-weight:300;font-size:72px;line-height:1;font-family:&quot;Uni Neue&quot;;font-variant-ligatures:none;text-align:center;text-anchor:middle" transform="matrix(.75 0 0 .75 128.03 403.305)"/>
        <path fill="#e2adb2" d="M664.817 0c.288 0 .432-.144.432-.432V-1.8c0-.288-.144-.432-.432-.432H640.05v-48.816c0-.288-.144-.432-.432-.432h-1.512c-.288 0-.504.144-.504.432V-.432c0 .288.216.432.504.432z" style="font-style:normal;font-weight:300;font-size:72px;line-height:1;font-family:&quot;Uni Neue&quot;;font-variant-ligatures:none;text-align:center;text-anchor:middle" transform="matrix(.75 0 0 .75 128.03 403.305)"/>
        <path fill="#e4b1b5" d="M669.003 0c.216 0 .36-.144.432-.36l5.904-15.768h24.12L705.291-.36c.144.216.288.36.504.36h1.656c.288 0 .432-.216.36-.504L688.875-51.12a.541.541 0 0 0-.504-.36h-2.016c-.144 0-.36.144-.432.36L666.987-.504c-.072.288.072.504.36.504zm18.288-48.528h.216l11.16 30.168h-22.536z" style="font-style:normal;font-weight:300;font-size:72px;line-height:1;font-family:&quot;Uni Neue&quot;;font-variant-ligatures:none;text-align:center;text-anchor:middle" transform="matrix(.75 0 0 .75 128.03 403.305)"/>
        <path fill="#e6b4b8" d="M749.56 0c.36 0 .432-.288.288-.576L733.216-21.96c9.936-.504 15.84-5.904 15.84-14.688 0-9.36-6.552-14.832-17.136-14.832h-15.768c-.288 0-.504.144-.504.432V-.432c0 .288.216.432.504.432h1.512c.216 0 .432-.144.432-.432v-21.456h12.312l16.632 21.6c.072.216.36.288.576.288zm-17.64-49.248c9.288 0 14.76 4.536 14.76 12.6 0 8.136-5.472 12.528-14.76 12.528h-13.824v-25.128z" style="font-style:normal;font-weight:300;font-size:72px;line-height:1;font-family:&quot;Uni Neue&quot;;font-variant-ligatures:none;text-align:center;text-anchor:middle" transform="matrix(.75 0 0 .75 128.03 403.305)"/>
        <path fill="#e8b8bc" d="M755.91 0c.216 0 .36-.144.432-.36l5.904-15.768h24.12L792.198-.36c.144.216.288.36.504.36h1.656c.288 0 .432-.216.36-.504L775.782-51.12a.541.541 0 0 0-.504-.36h-2.016c-.144 0-.36.144-.432.36L753.894-.504c-.072.288.072.504.36.504zm18.288-48.528h.216l11.16 30.168h-22.536z" style="font-style:normal;font-weight:300;font-size:72px;line-height:1;font-family:&quot;Uni Neue&quot;;font-variant-ligatures:none;text-align:center;text-anchor:middle" transform="matrix(.75 0 0 .75 128.03 403.305)"/>
        <path fill="#eabcbf" d="M815.722 0c.144 0 .432-.144.504-.36l19.296-50.616c.072-.288-.072-.504-.36-.504h-1.584a.541.541 0 0 0-.504.36L814.642-2.736h-.144l-18.36-48.384c-.144-.216-.36-.36-.576-.36h-1.584c-.288 0-.432.216-.36.504L812.914-.36c.144.216.36.36.576.36z" style="font-style:normal;font-weight:300;font-size:72px;line-height:1;font-family:&quot;Uni Neue&quot;;font-variant-ligatures:none;text-align:center;text-anchor:middle" transform="matrix(.75 0 0 .75 128.03 403.305)"/>
        <path fill="#ecbfc3" d="M845.643-25.128h24.624c.288 0 .504-.144.504-.432v-1.368c0-.288-.216-.432-.504-.432h-24.624v-21.888h26.136c.288 0 .432-.144.432-.432v-1.368c0-.288-.144-.432-.432-.432h-28.08c-.288 0-.504.144-.504.432V-.432c0 .288.216.432.504.432h29.16c.288 0 .432-.144.432-.432V-1.8c0-.288-.144-.432-.432-.432h-27.216z" style="font-style:normal;font-weight:300;font-size:72px;line-height:1;font-family:&quot;Uni Neue&quot;;font-variant-ligatures:none;text-align:center;text-anchor:middle" transform="matrix(.75 0 0 .75 128.03 403.305)"/>
        <path fill="#eec3c6" d="M910.91 0c.289 0 .433-.144.433-.432V-1.8c0-.288-.144-.432-.432-.432h-24.768v-48.816c0-.288-.144-.432-.432-.432h-1.512c-.288 0-.504.144-.504.432V-.432c0 .288.216.432.504.432z" style="font-style:normal;font-weight:300;font-size:72px;line-height:1;font-family:&quot;Uni Neue&quot;;font-variant-ligatures:none;text-align:center;text-anchor:middle" transform="matrix(.75 0 0 .75 128.03 403.305)"/>
    </g>
</svg>
